<?xml version="1.0" standalone="no"?><!DOCTYPE svg PUBLIC "-//W3C//DTD SVG 1.1//EN" "http://www.w3.org/Graphics/SVG/1.1/DTD/svg11.dtd"><svg t="1665242591571" class="icon" viewBox="0 0 1024 1024" version="1.1" xmlns="http://www.w3.org/2000/svg" p-id="1153" xmlns:xlink="http://www.w3.org/1999/xlink" width="200" height="200"><path d="M512 32C246.95355031 32 32.13316344 252.25887781 32.13316344 524.06345281c0 217.33968844 137.48184844 401.76850969 328.18892719 466.83045375 23.99334188 4.51874625 32.79090094-10.6770375 32.79090093-23.71341937 0-11.67675937-0.43987781-42.62817094-0.67981218-83.69677407-133.48295813 29.75174344-161.67513469-65.98168969-161.67513469-65.98168968-21.79395187-56.78424281-53.26521844-71.9000475-53.26521938-71.90004844-43.58790469-30.55152187 3.31907906-29.95168875 3.31907907-29.95168781 48.14663906 3.47903437 73.45961531 50.70592875 73.45961531 50.70592875 42.82811531 75.1791375 112.32882844 53.50515187 139.68123844 40.86865875 4.35879-31.79117812 16.79533969-53.46516375 30.47154375-65.78174532-106.57042687-12.39655969-218.57934469-54.58485281-218.57934375-243.13253062 0-53.70509719 18.67481813-97.65290156 49.38629531-132.0433575-4.918635-12.43654875-21.39406312-62.46266625 4.67870156-130.20386906 0 0 40.30881469-13.19633812 131.96338031 50.42600718 38.30936906-10.91697094 79.33798406-16.35546094 120.16665375-16.55540625 40.7486925 0.19994437 81.81729562 5.63843531 120.12666469 16.55540625 91.57458844-63.66233344 131.803425-50.42600719 131.803425-50.42600718 26.19273187 67.74120188 9.75729281 117.76731937 4.79866781 130.20386906 30.79145531 34.39045687 49.30631719 78.33826125 49.30631719 132.0433575 0 188.98755562-112.16887313 230.61600375-219.05921062 242.77263094 17.19522844 15.19578281 32.5509675 45.18746062 32.5509675 91.13470968 0 65.78174531-0.59983312 118.80703125-0.59983407 134.96254782 0 13.15634906 8.63760281 28.47209906 32.99084532 23.63344218 190.54712344-65.18191219 327.90900563-249.49076625 327.90900468-466.75047656C991.86683656 252.25887781 777.00646062 32 512 32" fill="#3E75C3" p-id="1154"></path></svg>